<!--?xml version="1.0" encoding="utf-8"?-->
<!-- Generator: Adobe Illustrator 19.1.1, SVG Export Plug-In . SVG Version: 6.00 Build 0)  -->
<svg version="1.1" id="_x31_0" xmlns="http://www.w3.org/2000/svg" xmlns:xlink="http://www.w3.org/1999/xlink" x="0px" y="0px" viewBox="0 0 512 512" style="width: 64px; height: 64px; opacity: 1;" xml:space="preserve">
<style type="text/css">
	.st0{fill:#374149;}
</style>
<g>
	<polygon class="st0" points="191.506,176.914 308.799,78.066 328.604,61.414 328.58,61.394 328.706,61.289 256.002,0 
		97.69,133.215 97.69,230.621 191.506,230.621 	" style="fill: rgb(75, 75, 75);"></polygon>
	<polygon class="st0" points="373.893,99.207 311.834,151.652 301.291,160.531 301.31,160.547 301.186,160.652 320.498,176.914 
		320.498,382.602 414.31,382.602 414.31,133.215 	" style="fill: rgb(75, 75, 75);"></polygon>
	<rect x="97.69" y="288.785" class="st0" width="164.645" height="93.817" style="fill: rgb(75, 75, 75);"></rect>
	<polygon class="st0" points="180.639,454.602 180.639,477.867 161.373,477.867 161.373,454.602 150.26,454.602 150.26,511.523 
		161.373,511.523 161.373,487.695 180.639,487.695 180.639,511.523 191.752,511.523 191.752,454.602 	" style="fill: rgb(75, 75, 75);"></polygon>
	<path class="st0" d="M247.26,469.668c-0.375-1.836-0.95-3.527-1.719-5.074c-0.773-1.546-1.878-3.039-3.316-4.477
		c-1.922-1.918-4.106-3.398-6.554-4.437c-2.454-1.039-5.332-1.559-8.637-1.559c-3.305,0-6.195,0.52-8.676,1.559
		c-2.477,1.038-4.676,2.519-6.594,4.437c-1.438,1.438-2.547,2.93-3.317,4.477c-0.774,1.547-1.332,3.238-1.679,5.074
		c-0.348,1.844-0.562,3.851-0.637,6.039c-0.082,2.183-0.122,4.633-0.122,7.355c0,2.719,0.039,5.168,0.122,7.352
		c0.074,2.187,0.289,4.199,0.637,6.035c0.347,1.843,0.906,3.534,1.679,5.078c0.77,1.547,1.879,3.039,3.317,4.477
		c1.918,1.918,4.117,3.398,6.594,4.438c2.481,1.039,5.371,1.558,8.676,1.558c3.305,0,6.183-0.519,8.637-1.558
		c2.449-1.039,4.633-2.52,6.554-4.438c1.438-1.438,2.543-2.93,3.316-4.477c0.77-1.543,1.344-3.234,1.719-5.078
		c0.371-1.836,0.602-3.848,0.68-6.035c0.082-2.184,0.121-4.633,0.121-7.352c0-2.722-0.039-5.172-0.121-7.355
		C247.862,473.519,247.631,471.512,247.26,469.668z M231.15,501.211c-1.199,0.586-2.574,0.874-4.117,0.874
		c-1.547,0-2.918-0.289-4.118-0.874c-1.199-0.586-2.222-1.336-3.074-2.238c-0.535-0.59-0.976-1.242-1.324-1.961
		c-0.347-0.723-0.625-1.653-0.84-2.801c-0.21-1.145-0.359-2.61-0.438-4.394c-0.082-1.786-0.121-4.035-0.121-6.754
		c0-2.722,0.039-4.973,0.121-6.758c0.078-1.782,0.227-3.262,0.438-4.438c0.215-1.172,0.493-2.117,0.84-2.836
		c0.348-0.718,0.789-1.375,1.324-1.957c0.852-0.91,1.875-1.641,3.074-2.199c1.199-0.562,2.57-0.84,4.118-0.84
		c1.542,0,2.918,0.278,4.117,0.84c1.199,0.558,2.199,1.289,3,2.199c0.527,0.582,0.969,1.238,1.317,1.957
		c0.347,0.719,0.629,1.664,0.839,2.836c0.215,1.176,0.375,2.656,0.481,4.438c0.106,1.785,0.16,4.035,0.16,6.758
		c0,2.719-0.054,4.969-0.16,6.754c-0.106,1.785-0.266,3.25-0.481,4.394c-0.21,1.148-0.492,2.078-0.839,2.801
		c-0.348,0.718-0.79,1.371-1.317,1.961C233.35,499.875,232.35,500.625,231.15,501.211z" style="fill: rgb(75, 75, 75);"></path>
	<polygon class="st0" points="290.885,473.617 285.178,485.266 270.366,454.602 259.412,454.602 259.412,511.523 270.526,511.523 
		270.526,493.93 270.662,478.617 281.474,499.93 288.99,499.93 294.756,488.481 299.862,478.652 299.862,511.523 310.974,511.523 
		310.974,454.602 300.022,454.602 	" style="fill: rgb(75, 75, 75);"></polygon>
	<polygon class="st0" points="324.248,454.602 324.248,511.523 361.74,511.523 361.74,501.61 335.358,501.61 335.358,487.778 
		357.822,487.778 357.822,477.867 335.358,477.867 335.358,464.512 361.74,464.512 361.74,454.602 	" style="fill: rgb(75, 75, 75);"></polygon>
</g>
</svg>
